<svg xmlns="http://www.w3.org/2000/svg" viewBox="0 0 1280 1280"><defs><style>.cls-1{fill:#fff;}.cls-2{fill:#ffb000;}.cls-3{fill:#ffd800;}</style></defs><g id="Background"><rect class="cls-1" width="1280" height="1280"/></g><g id="Layer_2" data-name="Layer 2"><path class="cls-2" d="M824.88,494.37A35.22,35.22,0,1,0,796,484.58l-90,91.61H573.92l-90-91.61a35.2,35.2,0,1,0-28.84,9.79L419.61,615V795H860.39V615Z"/><path class="cls-3" d="M992.91,471a48.46,48.46,0,0,0-45.4,65.67L798.66,592.82,669,419.13a48.56,48.56,0,1,0-58,0L481.34,592.82,332.49,536.71a48.53,48.53,0,1,0-45.4,31.45,49.15,49.15,0,0,0,10.07-1.06l46.77,220.75a22.89,22.89,0,0,0-21,22.8h0a22.9,22.9,0,0,0,22.9,22.9H934.13a22.9,22.9,0,0,0,22.9-22.9h0a22.89,22.89,0,0,0-21-22.8L982.84,567.1a49.15,49.15,0,0,0,10.07,1.06,48.56,48.56,0,1,0,0-97.12Z"/></g></svg>