<svg id="wheel-frame" xmlns="http://www.w3.org/2000/svg" viewBox="0 0 900 900"><defs><style>.cls-1{fill:#ffae2c;}.cls-2{fill:#f68226;}.cls-3{fill:#fff;}.cls-4{fill:#ffc751;}.cls-5{fill:#ffb000;}.cls-6{fill:#ffd800;}</style></defs><path class="cls-1" d="M451,9C207.44,9,10,206.44,10,450S207.44,891,451,891,892,693.56,892,450,694.56,9,451,9ZM660.84,751.14c-165.28,117.19-394.27,78.2-511.46-87.09S71.19,269.78,236.47,152.59q2.67-1.89,5.37-3.73c167.35-114.22,395.6-71.15,509.82,96.19C864.45,410.29,824,635.43,660.84,751.14Z"/><polygon class="cls-2" points="446.25 49.38 456.32 39.66 471.85 55.23 462 65.13 446.25 49.38"/><polygon class="cls-2" points="602.97 83.87 613.04 74.16 628.57 89.73 618.72 99.62 602.97 83.87"/><polygon class="cls-2" points="730.47 170.31 740.54 160.6 756.07 176.17 746.22 186.06 730.47 170.31"/><polygon class="cls-2" points="823.39 306.45 833.47 296.74 848.99 312.31 839.14 322.2 823.39 306.45"/><polygon class="cls-2" points="851.49 459.88 861.56 450.17 877.08 465.74 867.24 475.63 851.49 459.88"/><polygon class="cls-2" points="815.83 611.15 825.9 601.44 841.43 617.01 831.58 626.9 815.83 611.15"/><polygon class="cls-2" points="728.31 739.73 738.38 730.02 753.91 745.59 744.06 755.48 728.31 739.73"/><polygon class="cls-2" points="594.33 833.74 604.4 824.02 619.92 839.59 610.08 849.49 594.33 833.74"/><polygon class="cls-2" points="436.57 861.83 446.65 852.12 462.17 867.69 452.32 877.58 436.57 861.83"/><polygon class="cls-2" points="296.11 832.66 306.18 822.94 321.71 838.51 311.86 848.41 296.11 832.66"/><polygon class="cls-2" points="162.94 740.81 173.01 731.1 188.54 746.67 178.69 756.56 162.94 740.81"/><polygon class="cls-2" points="74.61 615.21 84.68 605.49 100.21 621.06 90.36 630.96 74.61 615.21"/><polygon class="cls-2" points="41.38 460.43 51.46 450.71 66.98 466.28 57.13 476.18 41.38 460.43"/><polygon class="cls-2" points="69.75 308.07 79.82 298.36 95.34 313.93 85.5 323.82 69.75 308.07"/><polygon class="cls-2" points="163.75 169.5 173.82 159.79 189.35 175.36 179.5 185.25 163.75 169.5"/><polygon class="cls-2" points="290.71 80.63 300.78 70.92 316.31 86.49 306.46 96.38 290.71 80.63"/><circle class="cls-3" cx="606.3" cy="76.65" r="13.33"/><circle class="cls-3" cx="734.94" cy="164.5" r="13.33"/><circle class="cls-3" cx="827.49" cy="302.54" r="13.33"/><circle class="cls-3" cx="855.73" cy="454.71" r="13.33"/><circle class="cls-3" cx="822.78" cy="608.44" r="13.33"/><circle class="cls-3" cx="734.94" cy="735.5" r="13.33"/><circle class="cls-3" cx="600.03" cy="828.06" r="13.33"/><circle class="cls-3" cx="441.59" cy="856.29" r="13.33"/><circle class="cls-3" cx="295.7" cy="76.65" r="13.33"/><circle class="cls-3" cx="167.06" cy="164.5" r="13.33"/><circle class="cls-3" cx="74.51" cy="302.54" r="13.33"/><circle class="cls-3" cx="46.27" cy="454.71" r="13.33"/><circle class="cls-3" cx="79.22" cy="608.44" r="13.33"/><circle class="cls-3" cx="167.06" cy="735.5" r="13.33"/><circle class="cls-3" cx="301.97" cy="828.06" r="13.33"/><circle class="cls-3" cx="451" cy="43.71" r="13.33"/><circle class="cls-3" cx="822.78" cy="607.65" r="5.49"/><circle class="cls-3" cx="855.73" cy="455.49" r="5.49"/><circle class="cls-3" cx="827.49" cy="301.76" r="5.49"/><circle class="cls-3" cx="734.94" cy="165.28" r="5.49"/><circle class="cls-3" cx="606.3" cy="77.43" r="5.49"/><circle class="cls-3" cx="295.7" cy="75.86" r="5.49"/><circle class="cls-3" cx="167.06" cy="165.28" r="5.49"/><circle class="cls-3" cx="74.51" cy="303.33" r="5.49"/><circle class="cls-3" cx="46.27" cy="453.92" r="5.49"/><circle class="cls-3" cx="79.22" cy="609.22" r="5.49"/><circle class="cls-3" cx="167.06" cy="734.72" r="5.49"/><circle class="cls-3" cx="301.97" cy="828.84" r="5.49"/><circle class="cls-3" cx="441.59" cy="857.08" r="5.49"/><circle class="cls-3" cx="600.03" cy="828.84" r="5.49"/><circle class="cls-3" cx="734.94" cy="734.72" r="5.49"/><circle class="cls-3" cx="451" cy="42.92" r="5.49"/><path class="cls-2" d="M714,187.34c-145.06-145.07-380.26-145.07-525.33,0s-145.07,380.26,0,525.33,380.26,145.07,525.33,0,145.07-380.26,0-525.33ZM707.34,706c-143.24,139.52-372.48,136.51-512-6.74C58.4,558.68,58.4,334.59,195.34,194c139.52-143.25,368.76-146.26,512-6.74s146.26,368.76,6.74,512Q710.75,702.68,707.34,706Z"/><path class="cls-4" d="M518.43,387.14a95,95,0,0,0-39.23-24.72c-.1-.29-26.29-68.94-26.29-68.94l-29.18,67.77a95.49,95.49,0,1,0,94.7,25.89Zm-70.6,146.38a81.06,81.06,0,1,1,82.76-79.32h0A81.05,81.05,0,0,1,447.83,533.52Z"/><path class="cls-3" d="M452.42,316.91l-24.8,63.72c-.22.64.09,1.17.68,1.18l45.47,1c.59,0,.92-.51.73-1.15Z"/><ellipse class="cls-3" cx="451.56" cy="356.35" rx="6.83" ry="6.5" transform="translate(85.75 800.28) rotate(-88.79)"/><circle class="cls-3" cx="450.52" cy="451.76" r="84.77"/><path class="cls-4" d="M710.73,190.59c-143.27-143.27-375.55-143.26-518.82,0s-143.26,375.55,0,518.82,375.55,143.26,518.81,0S854,333.86,710.73,190.59ZM451.32,799.06c-192.78,0-349.06-156.28-349.06-349.06S258.54,100.94,451.32,100.94,800.38,257.22,800.38,450,644.1,799.06,451.32,799.06Z"/><path class="cls-5" d="M470.78,440.08a4,4,0,1,0-3.24-1.1l-10.11,10.3H442.57L432.46,439a4,4,0,1,0-3.24,1.1l-4,13.56v20.23h49.56V453.64Z"/><path class="cls-6" d="M489.68,437.45a5.46,5.46,0,0,0-5.46,5.46,5.6,5.6,0,0,0,.35,1.93l-16.73,6.31-14.58-19.53a5.46,5.46,0,1,0-6.52,0l-14.58,19.53-16.73-6.31a5.6,5.6,0,0,0,.35-1.93,5.46,5.46,0,1,0-5.46,5.46,5.38,5.38,0,0,0,1.14-.12l5.25,24.82a2.58,2.58,0,0,0-2.35,2.57h0a2.57,2.57,0,0,0,2.57,2.57h66.14a2.57,2.57,0,0,0,2.57-2.57h0a2.58,2.58,0,0,0-2.35-2.57l5.25-24.82a5.38,5.38,0,0,0,1.14.12,5.46,5.46,0,0,0,0-10.92Z"/></svg>