<?xml version="1.0" encoding="utf-8"?>
<!-- Generator: Adobe Illustrator 26.0.2, SVG Export Plug-In . SVG Version: 6.00 Build 0)  -->
<svg version="1.1" id="wheel-frame" xmlns="http://www.w3.org/2000/svg" xmlns:xlink="http://www.w3.org/1999/xlink" x="0px"
	 y="0px" viewBox="0 0 900 900" style="enable-background:new 0 0 900 900;" xml:space="preserve">
<style type="text/css">
	.st0{fill:#FFAE2C;}
	.st1{fill:#F68226;}
	.st2{fill:#FFFFFF;}
	.st3{fill:#FFC751;}
	.st4{fill:#FFB000;}
	.st5{fill:#FFD800;}
</style>
<path class="st0" d="M451,9C207.4,9,10,206.4,10,450s197.4,441,441,441s441-197.4,441-441S694.6,9,451,9z M660.8,751.1
	c-165.3,117.2-394.3,78.2-511.5-87.1s-78.2-394.3,87.1-511.5c1.8-1.3,3.6-2.5,5.4-3.7c167.3-114.2,395.6-71.2,509.8,96.2
	C864.4,410.3,824,635.4,660.8,751.1z"/>
<g>
	<polygon class="st1" points="446.2,49.4 456.3,39.7 471.9,55.2 462,65.1 	"/>
	<polygon class="st1" points="603,83.9 613,74.2 628.6,89.7 618.7,99.6 	"/>
	<polygon class="st1" points="730.5,170.3 740.5,160.6 756.1,176.2 746.2,186.1 	"/>
	<polygon class="st1" points="823.4,306.5 833.5,296.7 849,312.3 839.1,322.2 	"/>
	<polygon class="st1" points="851.5,459.9 861.6,450.2 877.1,465.7 867.2,475.6 	"/>
	<polygon class="st1" points="815.8,611.2 825.9,601.4 841.4,617 831.6,626.9 	"/>
	<polygon class="st1" points="728.3,739.7 738.4,730 753.9,745.6 744.1,755.5 	"/>
	<polygon class="st1" points="594.3,833.7 604.4,824 619.9,839.6 610.1,849.5 	"/>
	<polygon class="st1" points="436.6,861.8 446.6,852.1 462.2,867.7 452.3,877.6 	"/>
	<polygon class="st1" points="296.1,832.7 306.2,822.9 321.7,838.5 311.9,848.4 	"/>
	<polygon class="st1" points="162.9,740.8 173,731.1 188.5,746.7 178.7,756.6 	"/>
	<polygon class="st1" points="74.6,615.2 84.7,605.5 100.2,621.1 90.4,631 	"/>
	<polygon class="st1" points="41.4,460.4 51.5,450.7 67,466.3 57.1,476.2 	"/>
	<polygon class="st1" points="69.8,308.1 79.8,298.4 95.3,313.9 85.5,323.8 	"/>
	<polygon class="st1" points="163.8,169.5 173.8,159.8 189.4,175.4 179.5,185.2 	"/>
	<polygon class="st1" points="290.7,80.6 300.8,70.9 316.3,86.5 306.5,96.4 	"/>
</g>
<circle class="st2" cx="606.3" cy="76.7" r="13.3"/>
<circle class="st2" cx="734.9" cy="164.5" r="13.3"/>
<circle class="st2" cx="827.5" cy="302.5" r="13.3"/>
<circle class="st2" cx="855.7" cy="454.7" r="13.3"/>
<circle class="st2" cx="822.8" cy="608.4" r="13.3"/>
<circle class="st2" cx="734.9" cy="735.5" r="13.3"/>
<circle class="st2" cx="600" cy="828.1" r="13.3"/>
<circle class="st2" cx="441.6" cy="856.3" r="13.3"/>
<circle class="st2" cx="295.7" cy="76.7" r="13.3"/>
<circle class="st2" cx="167.1" cy="164.5" r="13.3"/>
<circle class="st2" cx="74.5" cy="302.5" r="13.3"/>
<circle class="st2" cx="46.3" cy="454.7" r="13.3"/>
<circle class="st2" cx="79.2" cy="608.4" r="13.3"/>
<circle class="st2" cx="167.1" cy="735.5" r="13.3"/>
<circle class="st2" cx="302" cy="828.1" r="13.3"/>
<circle class="st2" cx="451" cy="43.7" r="13.3"/>
<circle class="st2" cx="822.8" cy="607.7" r="5.5"/>
<circle class="st2" cx="855.7" cy="455.5" r="5.5"/>
<circle class="st2" cx="827.5" cy="301.8" r="5.5"/>
<circle class="st2" cx="734.9" cy="165.3" r="5.5"/>
<circle class="st2" cx="606.3" cy="77.4" r="5.5"/>
<circle class="st2" cx="295.7" cy="75.9" r="5.5"/>
<circle class="st2" cx="167.1" cy="165.3" r="5.5"/>
<circle class="st2" cx="74.5" cy="303.3" r="5.5"/>
<circle class="st2" cx="46.3" cy="453.9" r="5.5"/>
<circle class="st2" cx="79.2" cy="609.2" r="5.5"/>
<circle class="st2" cx="167.1" cy="734.7" r="5.5"/>
<circle class="st2" cx="302" cy="828.8" r="5.5"/>
<circle class="st2" cx="441.6" cy="857.1" r="5.5"/>
<circle class="st2" cx="600" cy="828.8" r="5.5"/>
<circle class="st2" cx="734.9" cy="734.7" r="5.5"/>
<circle class="st2" cx="451" cy="42.9" r="5.5"/>
<path class="st1" d="M714,187.3c-145.1-145.1-380.3-145.1-525.3,0s-145.1,380.3,0,525.3s380.3,145.1,525.3,0S859.1,332.4,714,187.3
	L714,187.3z M707.3,706c-143.2,139.5-372.5,136.5-512-6.7C58.4,558.7,58.4,334.6,195.3,194c139.5-143.2,368.8-146.3,512-6.7
	s146.3,368.8,6.7,512C711.9,701.5,709.6,703.8,707.3,706z"/>
<path class="st3" d="M518.4,387.1c-10.8-11.4-24.3-19.8-39.2-24.7c-0.1-0.3-26.3-68.9-26.3-68.9s-29.1,67.5-29.2,67.8
	c-50.8,14.2-80.4,66.9-66.2,117.7c14.2,50.8,66.9,80.4,117.7,66.2c50.8-14.2,80.4-66.9,66.2-117.7
	C537.2,412.3,529.3,398.5,518.4,387.1z M447.8,533.5c-44.8-0.9-80.3-38-79.3-82.8s38-80.3,82.8-79.3s80.3,38,79.3,82.8c0,0,0,0,0,0
	C529.6,499,492.6,534.5,447.8,533.5z"/>
<path class="st2" d="M452.4,316.9l-24.8,63.7c-0.2,0.6,0.1,1.2,0.7,1.2l45.5,1c0.6,0,0.9-0.5,0.7-1.1L452.4,316.9z"/>
<ellipse transform="matrix(2.111690e-02 -0.9998 0.9998 2.111690e-02 85.7544 800.277)" class="st2" cx="451.6" cy="356.3" rx="6.8" ry="6.5"/>
<circle class="st2" cx="450.5" cy="451.8" r="84.8"/>
<g>
	<path class="st3" d="M710.7,190.6c-143.3-143.3-375.5-143.3-518.8,0s-143.3,375.5,0,518.8s375.5,143.3,518.8,0
		S854,333.9,710.7,190.6z M451.3,799.1c-192.8,0-349.1-156.3-349.1-349.1s156.3-349.1,349.1-349.1S800.4,257.2,800.4,450
		S644.1,799.1,451.3,799.1z"/>
</g>
<g>
	<path class="st4" d="M470.8,440.1c1.8-0.2,3.3-1.6,3.5-3.5c0.2-2.2-1.3-4.1-3.5-4.4c-2.2-0.2-4.1,1.3-4.4,3.5
		c-0.1,1.3,0.3,2.4,1.2,3.3l-10.1,10.3h-14.9L432.5,439c0.8-0.8,1.3-2,1.2-3.3c-0.2-2.2-2.2-3.7-4.4-3.5c-2.2,0.2-3.7,2.2-3.5,4.4
		c0.2,1.9,1.7,3.3,3.5,3.5l-4,13.6v20.2h49.6v-20.2L470.8,440.1z"/>
	<path class="st5" d="M489.7,437.5c-3,0-5.5,2.4-5.5,5.5c0,0.7,0.1,1.3,0.4,1.9l-16.7,6.3l-14.6-19.5c1.3-1,2.2-2.6,2.2-4.4
		c0-3-2.4-5.5-5.5-5.5s-5.5,2.4-5.5,5.5c0,1.8,0.9,3.4,2.2,4.4l-14.6,19.5l-16.7-6.3c0.2-0.6,0.4-1.2,0.4-1.9c0-3-2.4-5.5-5.5-5.5
		c-3,0-5.5,2.4-5.5,5.5c0,3,2.4,5.5,5.5,5.5c0.4,0,0.8,0,1.1-0.1l5.3,24.8c-1.3,0.1-2.4,1.2-2.4,2.6l0,0c0,1.4,1.2,2.6,2.6,2.6h66.1
		c1.4,0,2.6-1.2,2.6-2.6l0,0c0-1.3-1-2.5-2.4-2.6l5.3-24.8c0.4,0.1,0.7,0.1,1.1,0.1c3,0,5.5-2.4,5.5-5.5
		C495.1,439.9,492.7,437.5,489.7,437.5z"/>
</g>
</svg>
